<svg xmlns="http://www.w3.org/2000/svg" viewBox="0 0 760 560" role="img" aria-label="Архивные документы и родословное дерево">
  <defs>
    <linearGradient id="paper" x1="0" x2="1" y1="0" y2="1"><stop stop-color="#fffaf0"/><stop offset="1" stop-color="#ead6b9"/></linearGradient>
    <filter id="shadow" x="-20%" y="-20%" width="140%" height="140%"><feDropShadow dx="0" dy="18" stdDeviation="18" flood-color="#5e3d22" flood-opacity="0.18"/></filter>
  </defs>
  <rect width="760" height="560" rx="36" fill="#f3eadc"/>
  <circle cx="620" cy="88" r="78" fill="#e2c7a2" opacity="0.55"/>
  <circle cx="98" cy="454" r="96" fill="#d6b384" opacity="0.35"/>
  <g filter="url(#shadow)">
    <rect x="80" y="78" width="330" height="405" rx="20" fill="url(#paper)" stroke="#cfb58f"/>
    <path d="M120 132h210M120 170h250M120 208h180M120 246h235M120 284h210" stroke="#9d7a51" stroke-width="10" stroke-linecap="round" opacity=".42"/>
    <rect x="118" y="332" width="214" height="74" rx="8" fill="none" stroke="#8b5e34" stroke-width="4" opacity=".5"/>
    <text x="136" y="376" font-family="Arial, sans-serif" font-size="28" fill="#8b5e34" font-weight="700">МЕТРИКА</text>
  </g>
  <g filter="url(#shadow)">
    <rect x="315" y="120" width="340" height="360" rx="24" fill="#fffdf8" stroke="#d8c3a3"/>
    <path d="M488 405V225" stroke="#70441c" stroke-width="8" stroke-linecap="round"/>
    <path d="M488 250c-78-18-122-61-132-130 82-8 136 35 160 106" fill="none" stroke="#28755a" stroke-width="13" stroke-linecap="round"/>
    <path d="M488 250c78-18 122-61 132-130-82-8-136 35-160 106" fill="none" stroke="#2f5e88" stroke-width="13" stroke-linecap="round"/>
    <circle cx="488" cy="419" r="18" fill="#8b5e34"/>
    <circle cx="392" cy="145" r="16" fill="#28755a"/>
    <circle cx="586" cy="145" r="16" fill="#2f5e88"/>
    <circle cx="447" cy="218" r="14" fill="#aa7a1c"/>
    <circle cx="528" cy="218" r="14" fill="#aa7a1c"/>
    <text x="372" y="92" font-family="Arial, sans-serif" font-size="26" fill="#70441c" font-weight="700">Доказанное дерево</text>
  </g>
</svg>
