<svg xmlns="http://www.w3.org/2000/svg" viewBox="0 0 900 240" role="img" aria-label="Цикл доказательства">
  <rect width="900" height="240" rx="28" fill="#fffaf0"/>
  <g font-family="Arial, sans-serif" font-size="18" font-weight="700" text-anchor="middle">
    <g fill="#8b5e34" stroke="#70441c" stroke-width="2">
      <rect x="35" y="82" width="110" height="68" rx="18"/><rect x="170" y="82" width="110" height="68" rx="18"/><rect x="305" y="82" width="110" height="68" rx="18"/><rect x="440" y="82" width="110" height="68" rx="18"/><rect x="575" y="82" width="110" height="68" rx="18"/><rect x="710" y="82" width="150" height="68" rx="18"/>
    </g>
    <g fill="#fffaf0">
      <text x="90" y="123">Вопрос</text><text x="225" y="123">Поиск</text><text x="360" y="123">Документ</text><text x="495" y="123">Анализ</text><text x="630" y="123">Вывод</text><text x="785" y="123">Следующий шаг</text>
    </g>
    <g stroke="#70441c" stroke-width="4" fill="none" stroke-linecap="round">
      <path d="M147 116h20M282 116h20M417 116h20M552 116h20M687 116h20"/>
      <path d="M160 108l10 8-10 8M295 108l10 8-10 8M430 108l10 8-10 8M565 108l10 8-10 8M700 108l10 8-10 8"/>
    </g>
  </g>
</svg>
